<svg width="309" height="220" viewBox="0 0 309 220" fill="none" xmlns="http://www.w3.org/2000/svg">
<g filter="url(#filter0_d_64139_41)">
<rect x="3" y="3" width="287.244" height="178.874" rx="5.82677" fill="white"/>
</g>
<g filter="url(#filter1_d_64139_41)">
<path d="M3 8.82677C3 5.60873 5.60873 3 8.82677 3H284.417C287.635 3 290.244 5.60873 290.244 8.82677V22.0799H3V8.82677Z" fill="#00252E"/>
</g>
<rect x="24.5432" y="8.96246" width="59.8425" height="7.15495" rx="1.45669" fill="#E1E8EE"/>
<rect x="261.52" y="9.55872" width="9.5748" height="1.19249" rx="0.582677" fill="#E1E8EE"/>
<rect x="261.52" y="11.9437" width="9.5748" height="1.19249" rx="0.582677" fill="#E1E8EE"/>
<rect x="261.52" y="14.3287" width="9.5748" height="1.19249" rx="0.582677" fill="#E1E8EE"/>
<circle cx="38.0075" cy="57.5454" r="13.4643" fill="url(#paint0_linear_64139_41)"/>
<rect x="69.1302" y="47.1622" width="34.4094" height="4.76997" rx="0.874016" fill="#E1E8EE"/>
<rect x="69.1302" y="56.7021" width="119.685" height="2.38498" rx="0.874016" fill="#E1E8EE"/>
<rect x="69.1302" y="61.4721" width="109.711" height="2.38498" rx="0.874016" fill="#E1E8EE"/>
<rect x="69.1302" y="66.242" width="99.7375" height="2.38498" rx="0.874016" fill="#E1E8EE"/>
<ellipse cx="207.661" cy="58.451" rx="3.59055" ry="3.57748" fill="#A7B9C8"/>
<ellipse cx="226.811" cy="58.451" rx="3.59055" ry="3.57748" fill="#A7B9C8"/>
<ellipse cx="217.236" cy="58.451" rx="3.59055" ry="3.57748" fill="#A7B9C8"/>
<ellipse cx="236.386" cy="58.451" rx="3.59055" ry="3.57748" fill="#A7B9C8"/>
<ellipse cx="245.961" cy="58.451" rx="3.59055" ry="3.57748" fill="#A7B9C8"/>
<ellipse cx="38.0078" cy="98.1501" rx="13.4646" ry="13.4643" fill="url(#paint1_linear_64139_41)"/>
<rect x="69.1259" y="87.3688" width="34.4094" height="4.76997" rx="0.874016" fill="#E1E8EE"/>
<rect x="69.1259" y="96.9088" width="119.685" height="2.38498" rx="0.874016" fill="#E1E8EE"/>
<rect x="69.1259" y="101.679" width="109.711" height="2.38498" rx="0.874016" fill="#E1E8EE"/>
<rect x="69.1259" y="106.449" width="99.7375" height="2.38498" rx="0.874016" fill="#E1E8EE"/>
<ellipse cx="206.764" cy="98.1013" rx="3.59055" ry="3.57748" fill="#A7B9C8"/>
<ellipse cx="225.913" cy="98.1013" rx="3.59055" ry="3.57748" fill="#A7B9C8"/>
<ellipse cx="216.339" cy="98.1013" rx="3.59055" ry="3.57748" fill="#A7B9C8"/>
<ellipse cx="38.0078" cy="140.782" rx="13.4646" ry="13.4643" fill="url(#paint2_linear_64139_41)"/>
<rect x="69.1259" y="130" width="34.4094" height="4.76997" rx="0.874016" fill="#E1E8EE"/>
<rect x="69.1259" y="139.54" width="119.685" height="2.38498" rx="0.874016" fill="#E1E8EE"/>
<rect x="69.1259" y="144.31" width="109.711" height="2.38498" rx="0.874016" fill="#E1E8EE"/>
<rect x="69.1259" y="149.08" width="99.7375" height="2.38498" rx="0.874016" fill="#E1E8EE"/>
<ellipse cx="206.764" cy="140.733" rx="3.59055" ry="3.57748" fill="#A7B9C8"/>
<ellipse cx="225.913" cy="140.733" rx="3.59055" ry="3.57748" fill="#A7B9C8"/>
<ellipse cx="216.339" cy="140.733" rx="3.59055" ry="3.57748" fill="#A7B9C8"/>
<ellipse cx="235.488" cy="140.733" rx="3.59055" ry="3.57748" fill="#A7B9C8"/>
<g filter="url(#filter2_d_64139_41)">
<path fill-rule="evenodd" clip-rule="evenodd" d="M211.252 69.9818C211.252 67.2358 213.478 65.0096 216.224 65.0096H302.028C304.774 65.0096 307 67.2358 307 69.9818V212.676C307 215.423 304.774 217.649 302.028 217.649H216.224C213.478 217.649 211.252 215.423 211.252 212.676V69.9818Z" fill="white"/>
</g>
<g filter="url(#filter3_d_64139_41)">
<path fill-rule="evenodd" clip-rule="evenodd" d="M211.252 69.9818C211.252 67.2358 213.478 65.0096 216.224 65.0096H302.028C304.774 65.0096 307 67.2358 307 69.9818V81.2911H211.252V69.9818Z" fill="#00252E"/>
</g>
<rect x="220.867" y="70.6064" width="31.1181" height="6.10556" rx="1.24304" fill="#E1E8EE"/>
<rect x="288.616" y="71.1152" width="8.1705" height="1.01759" rx="0.497218" fill="#E1E8EE"/>
<rect x="288.616" y="73.1504" width="8.1705" height="1.01759" rx="0.497218" fill="#E1E8EE"/>
<rect x="288.616" y="75.1855" width="8.1705" height="1.01759" rx="0.497218" fill="#E1E8EE"/>
<ellipse cx="225.315" cy="101.679" rx="4.48819" ry="4.47185" fill="url(#paint3_linear_64139_41)"/>
<rect x="234.591" y="98.1013" width="17.2047" height="1.58999" rx="0.267918" fill="#E1E8EE"/>
<rect x="234.591" y="101.281" width="59.8425" height="0.794995" rx="0.267918" fill="#E1E8EE"/>
<rect x="234.591" y="102.871" width="54.8556" height="0.794995" rx="0.267918" fill="#E1E8EE"/>
<rect x="234.591" y="104.461" width="49.8688" height="0.794995" rx="0.267918" fill="#E1E8EE"/>
<ellipse cx="225.315" cy="142.82" rx="4.48819" ry="4.47185" fill="url(#paint4_linear_64139_41)"/>
<rect x="234.591" y="139.242" width="17.2047" height="1.58999" rx="0.267918" fill="#E1E8EE"/>
<rect x="234.591" y="142.422" width="59.8425" height="0.794995" rx="0.267918" fill="#E1E8EE"/>
<rect x="234.591" y="144.012" width="54.8556" height="0.794995" rx="0.267918" fill="#E1E8EE"/>
<rect x="234.591" y="145.602" width="49.8688" height="0.794995" rx="0.267918" fill="#E1E8EE"/>
<rect x="234.591" y="111.815" width="17.2047" height="1.58999" rx="0.267918" fill="#E1E8EE"/>
<rect x="234.591" y="114.995" width="59.8425" height="0.794995" rx="0.267918" fill="#E1E8EE"/>
<rect x="234.591" y="116.585" width="54.8556" height="0.794995" rx="0.267918" fill="#E1E8EE"/>
<rect x="234.591" y="118.175" width="49.8688" height="0.794995" rx="0.267918" fill="#E1E8EE"/>
<ellipse cx="225.315" cy="115.392" rx="4.48819" ry="4.47185" fill="url(#paint5_linear_64139_41)"/>
<rect x="234.591" y="152.956" width="17.2047" height="1.58999" rx="0.267918" fill="#E1E8EE"/>
<rect x="234.591" y="156.136" width="59.8425" height="0.794995" rx="0.267918" fill="#E1E8EE"/>
<rect x="234.591" y="157.726" width="54.8556" height="0.794995" rx="0.267918" fill="#E1E8EE"/>
<rect x="234.591" y="159.316" width="49.8688" height="0.794995" rx="0.267918" fill="#E1E8EE"/>
<ellipse cx="225.315" cy="156.533" rx="4.48819" ry="4.47185" fill="url(#paint6_linear_64139_41)"/>
<rect x="234.591" y="125.529" width="17.2047" height="1.58999" rx="0.267918" fill="#E1E8EE"/>
<rect x="234.591" y="128.709" width="59.8425" height="0.794995" rx="0.267918" fill="#E1E8EE"/>
<rect x="234.591" y="130.299" width="54.8556" height="0.794995" rx="0.267918" fill="#E1E8EE"/>
<rect x="234.591" y="131.889" width="49.8688" height="0.794995" rx="0.267918" fill="#E1E8EE"/>
<ellipse cx="225.315" cy="129.106" rx="4.48819" ry="4.47185" fill="url(#paint7_linear_64139_41)"/>
<rect x="234.591" y="166.67" width="17.2047" height="1.58999" rx="0.267918" fill="#E1E8EE"/>
<rect x="234.591" y="169.85" width="59.8425" height="0.794995" rx="0.267918" fill="#E1E8EE"/>
<rect x="234.591" y="171.44" width="54.8556" height="0.794995" rx="0.267918" fill="#E1E8EE"/>
<rect x="234.591" y="173.03" width="49.8688" height="0.794995" rx="0.267918" fill="#E1E8EE"/>
<ellipse cx="225.315" cy="170.247" rx="4.48819" ry="4.47185" fill="url(#paint8_linear_64139_41)"/>
<ellipse cx="225.315" cy="183.961" rx="4.48819" ry="4.47185" fill="url(#paint9_linear_64139_41)"/>
<rect x="234.591" y="180.383" width="17.2047" height="1.58999" rx="0.267918" fill="#E1E8EE"/>
<rect x="234.591" y="183.563" width="59.8425" height="0.794995" rx="0.267918" fill="#E1E8EE"/>
<rect x="234.591" y="185.153" width="54.8556" height="0.794995" rx="0.267918" fill="#E1E8EE"/>
<rect x="234.591" y="186.743" width="49.8688" height="0.794995" rx="0.267918" fill="#E1E8EE"/>
<rect x="234.591" y="194.097" width="17.2047" height="1.58999" rx="0.267918" fill="#E1E8EE"/>
<rect x="234.591" y="197.277" width="59.8425" height="0.794995" rx="0.267918" fill="#E1E8EE"/>
<rect x="234.591" y="198.867" width="54.8556" height="0.794995" rx="0.267918" fill="#E1E8EE"/>
<rect x="234.591" y="200.457" width="49.8688" height="0.794995" rx="0.267918" fill="#E1E8EE"/>
<ellipse cx="225.315" cy="197.674" rx="4.48819" ry="4.47185" fill="url(#paint10_linear_64139_41)"/>
<defs>
<filter id="filter0_d_64139_41" x="0" y="0" width="293.244" height="184.874" filterUnits="userSpaceOnUse" color-interpolation-filters="sRGB">
<feFlood flood-opacity="0" result="BackgroundImageFix"/>
<feColorMatrix in="SourceAlpha" type="matrix" values="0 0 0 0 0 0 0 0 0 0 0 0 0 0 0 0 0 0 127 0" result="hardAlpha"/>
<feOffset/>
<feGaussianBlur stdDeviation="1.5"/>
<feColorMatrix type="matrix" values="0 0 0 0 0 0 0 0 0 0.145098 0 0 0 0 0.180392 0 0 0 0.181839 0"/>
<feBlend mode="normal" in2="BackgroundImageFix" result="effect1_dropShadow_64139_41"/>
<feBlend mode="normal" in="SourceGraphic" in2="effect1_dropShadow_64139_41" result="shape"/>
</filter>
<filter id="filter1_d_64139_41" x="0" y="0" width="293.244" height="25.0799" filterUnits="userSpaceOnUse" color-interpolation-filters="sRGB">
<feFlood flood-opacity="0" result="BackgroundImageFix"/>
<feColorMatrix in="SourceAlpha" type="matrix" values="0 0 0 0 0 0 0 0 0 0 0 0 0 0 0 0 0 0 127 0" result="hardAlpha"/>
<feOffset/>
<feGaussianBlur stdDeviation="1.5"/>
<feColorMatrix type="matrix" values="0 0 0 0 0 0 0 0 0 0.145098 0 0 0 0 0.180392 0 0 0 0.181839 0"/>
<feBlend mode="normal" in2="BackgroundImageFix" result="effect1_dropShadow_64139_41"/>
<feBlend mode="normal" in="SourceGraphic" in2="effect1_dropShadow_64139_41" result="shape"/>
</filter>
<filter id="filter2_d_64139_41" x="209.252" y="63.0096" width="99.748" height="156.639" filterUnits="userSpaceOnUse" color-interpolation-filters="sRGB">
<feFlood flood-opacity="0" result="BackgroundImageFix"/>
<feColorMatrix in="SourceAlpha" type="matrix" values="0 0 0 0 0 0 0 0 0 0 0 0 0 0 0 0 0 0 127 0" result="hardAlpha"/>
<feOffset/>
<feGaussianBlur stdDeviation="1"/>
<feColorMatrix type="matrix" values="0 0 0 0 0 0 0 0 0 0.145098 0 0 0 0 0.180392 0 0 0 0.181839 0"/>
<feBlend mode="normal" in2="BackgroundImageFix" result="effect1_dropShadow_64139_41"/>
<feBlend mode="normal" in="SourceGraphic" in2="effect1_dropShadow_64139_41" result="shape"/>
</filter>
<filter id="filter3_d_64139_41" x="209.252" y="63.0096" width="99.748" height="20.2815" filterUnits="userSpaceOnUse" color-interpolation-filters="sRGB">
<feFlood flood-opacity="0" result="BackgroundImageFix"/>
<feColorMatrix in="SourceAlpha" type="matrix" values="0 0 0 0 0 0 0 0 0 0 0 0 0 0 0 0 0 0 127 0" result="hardAlpha"/>
<feOffset/>
<feGaussianBlur stdDeviation="1"/>
<feColorMatrix type="matrix" values="0 0 0 0 0 0 0 0 0 0.145098 0 0 0 0 0.180392 0 0 0 0.181839 0"/>
<feBlend mode="normal" in2="BackgroundImageFix" result="effect1_dropShadow_64139_41"/>
<feBlend mode="normal" in="SourceGraphic" in2="effect1_dropShadow_64139_41" result="shape"/>
</filter>
<linearGradient id="paint0_linear_64139_41" x1="9.44365" y1="46.2975" x2="25.9198" y2="84.4734" gradientUnits="userSpaceOnUse">
<stop stop-color="#FAD961"/>
<stop offset="1" stop-color="#FF52C1"/>
</linearGradient>
<linearGradient id="paint1_linear_64139_41" x1="24.5432" y1="84.6858" x2="24.5432" y2="111.614" gradientUnits="userSpaceOnUse">
<stop stop-color="#00C7FA"/>
<stop offset="1" stop-color="#007DFA"/>
</linearGradient>
<linearGradient id="paint2_linear_64139_41" x1="11.4526" y1="145.385" x2="44.8924" y2="183.244" gradientUnits="userSpaceOnUse">
<stop stop-color="#FF52C1"/>
<stop offset="1" stop-color="#9952FF"/>
</linearGradient>
<linearGradient id="paint3_linear_64139_41" x1="215.794" y1="97.943" x2="221.252" y2="110.637" gradientUnits="userSpaceOnUse">
<stop stop-color="#FAD961"/>
<stop offset="1" stop-color="#FF52C1"/>
</linearGradient>
<linearGradient id="paint4_linear_64139_41" x1="215.794" y1="139.084" x2="221.252" y2="151.778" gradientUnits="userSpaceOnUse">
<stop stop-color="#FAD961"/>
<stop offset="1" stop-color="#FF52C1"/>
</linearGradient>
<linearGradient id="paint5_linear_64139_41" x1="220.827" y1="110.921" x2="220.827" y2="119.864" gradientUnits="userSpaceOnUse">
<stop stop-color="#00C7FA"/>
<stop offset="1" stop-color="#007DFA"/>
</linearGradient>
<linearGradient id="paint6_linear_64139_41" x1="220.827" y1="152.062" x2="220.827" y2="161.005" gradientUnits="userSpaceOnUse">
<stop stop-color="#00C7FA"/>
<stop offset="1" stop-color="#007DFA"/>
</linearGradient>
<linearGradient id="paint7_linear_64139_41" x1="216.463" y1="130.635" x2="227.564" y2="143.249" gradientUnits="userSpaceOnUse">
<stop stop-color="#FF52C1"/>
<stop offset="1" stop-color="#9952FF"/>
</linearGradient>
<linearGradient id="paint8_linear_64139_41" x1="216.463" y1="171.776" x2="227.564" y2="184.39" gradientUnits="userSpaceOnUse">
<stop stop-color="#FF52C1"/>
<stop offset="1" stop-color="#9952FF"/>
</linearGradient>
<linearGradient id="paint9_linear_64139_41" x1="215.794" y1="180.225" x2="221.252" y2="192.919" gradientUnits="userSpaceOnUse">
<stop stop-color="#FAD961"/>
<stop offset="1" stop-color="#FF52C1"/>
</linearGradient>
<linearGradient id="paint10_linear_64139_41" x1="220.827" y1="193.203" x2="220.827" y2="202.146" gradientUnits="userSpaceOnUse">
<stop stop-color="#00C7FA"/>
<stop offset="1" stop-color="#007DFA"/>
</linearGradient>
</defs>
</svg>
